Cruel and brave Brazilian outlaw called Corisco, living in the backcountry in the Northeast, an arid region, rapes 12-year-old Dadá, who becomes his woman, following him and his gang. Although they were supposed to fight against social injustice, they terrorized the small villages along their way. Written by lukejoplin@infolink.com.br

General 
Unique ID : 143242678868004683847239670933094409417 (0x6BC3895516ECBF4B24C49CC40AD024C9) 
Complete name : Corisco.e.Dada.1996.DVDRip.x264.mkv 
Format : Matroska 
Format version : Version 2 
File size : 1.43 GiB 
Duration : 1h 40mn 
Overall bit rate : 2 045 Kbps 
Writing application : HandBrake 0.9.8 
Writing library : libmkv 0.6.5 

Video 
ID : 1 
Format : AVC 
Format/Info : Advanced Video Codec 
Format profile : High@L3.1 
Format settings, CABAC : Yes 
Format settings, ReFrames : 11 frames 
Codec ID : V_MPEG4/ISO/AVC 
Duration : 1h 40mn 
Bit rate : 1 813 Kbps 
Width : 718 pixels 
Height : 478 pixels 
Display aspect ratio : 4:3 
Frame rate mode : Constant 
Frame rate : 23.976 fps 
Color space : YUV 
Chroma subsampling : 4:2:0 
Bit depth : 8 bits 
Scan type : Progressive 
Bits/(Pixel*Frame) : 0.220 
Stream size : 1.27 GiB (89%) 
Writing library : x264 core 120 
Encoding settings : cabac=1 / ref=11 / deblock=1:-3:-3 / analyse=0x3:0x133 / me=umh / subme=11 / psy=1 / psy_rd=1.00:0.00 / mixed_ref=1 / me_range=32 / chroma_me=1 / trellis=2 / 8x8dct=1 / cqm=0 / deadzone=21,11 / fast_pskip=0 / chroma_qp_offset=-2 / threads=12 / sliced_threads=0 / nr=0 / decimate=1 / interlaced=0 / bluray_compat=0 / constrained_intra=0 / bframes=9 / b_pyramid=2 / b_adapt=2 / b_bias=0 / direct=3 / weightb=1 / open_gop=0 / weightp=2 / keyint=240 / keyint_min=24 / scenecut=40 / intra_refresh=0 / rc_lookahead=60 / rc=crf / mbtree=1 / crf=20.8 / qcomp=0.60 / qpmin=3 / qpmax=69 / qpstep=4 / ip_ratio=1.40 / aq=2:1.00 
Language : English 
Default : Yes 
Forced : No 
Color primaries : BT.601 NTSC 
Transfer characteristics : BT.709 
Matrix coefficients : BT.601 

Audio 
ID : 2 
Format : AC-3 
Format/Info : Audio Coding 3 
Mode extension : CM (complete main) 
Format settings, Endianness : Big 
Codec ID : A_AC3 
Duration : 1h 40mn 
Bit rate mode : Constant 
Bit rate : 192 Kbps 
Channel(s) : 2 channels 
Channel positions : Front: L R 
Sampling rate : 48.0 KHz 
Bit depth : 16 bits 
Compression mode : Lossy 
Stream size : 138 MiB (9%) 
Language : Portuguese 
Default : Yes 
Forced : No 

Menu 
00:00:00.000 : Chapter 1 
00:14:44.967 : Chapter 2 
00:30:50.890 : Chapter 3 
00:47:13.080 : Chapter 4 
01:00:01.139 : Chapter 5 
01:11:01.340 : Chapter 6 
01:25:18.613 : Chapter 7 
01:36:04.633 : Chapter 8 
01:40:19.179 : Chapter 9 

My rip.